# xmcd
#
# Track frame offsets:
#	150
#	12735
#	25131
#	36367
#	49453
#	59857
#	70058
#	79431
#	94157
#	105787
#	116529
#	128461
#	138262
#	148252
#	157990
#	168808
#	178387
#	188720
#	198891
#	208905
#	220224
#	230496
#	241843
#	254835
#
# Disc length: 3551 seconds
#
# Revision: 1
# Processed by: cddbd v1.5.2PL0 Copyright (c) Steve Scherf et al.
# Submitted via: audiograbber 1.83.01
#
DISCID=660ddd18
DTITLE=Various Artist - Northern Soul's Classiest Rarities 2
DYEAR=2005
DGENRE=Soul
TTITLE0=The Magicians - (Just A Little) Faith And Understanding
TTITLE1=Ty Karim - You Just Don't Know
TTITLE2=The Fashionettes - Losin' Control
TTITLE3=Joe Tex - I Wanna Be Free
TTITLE4=Eddie Campbell - Contagious Love
TTITLE5=Bill Bush - I'm Waiting
TTITLE6=The Extremes - How I Need Your Love
TTITLE7=Jimmy "Bo" Horne - I Can't Speak
TTITLE8=The Voice Masters - Two Lovers
TTITLE9=Janice Christian with Johnny and The Charmers - Just A Bad Thing
TTITLE10=Jennifer Wells - Dining In Chinatown
TTITLE11=The Angels - You Got What You Want
TTITLE12=Denita James - Wild Side
TTITLE13=Herbert Hunter - Love Has Taken Over Me
TTITLE14=Danny White - Miss Fine Miss Fine
TTITLE15=Billy Keen - I Finally Got Wise
TTITLE16=Gino - It's Only A Paper Moon
TTITLE17=Peggy Paxton - It Ain't What I Do (It's The Way I Do It)
TTITLE18=Louise Whitney - Gotta Keep On
TTITLE19=Carl Burnett and The Hustlers - Jerk Baby Jerk
TTITLE20=The Athens Rogues - She Could Love Me
TTITLE21=Jackie Washington - Why Won't They Let Me Be
TTITLE22=The Charmells - Sea Shells
TTITLE23=William Hunt - Would You Believe
EXTD=Kent CD 248
EXTT0=
EXTT1=
EXTT2=
EXTT3=
EXTT4=
EXTT5=
EXTT6=
EXTT7=
EXTT8=
EXTT9=
EXTT10=
EXTT11=
EXTT12=
EXTT13=
EXTT14=
EXTT15=
EXTT16=
EXTT17=
EXTT18=
EXTT19=
EXTT20=
EXTT21=
EXTT22=
EXTT23=
PLAYORDER=
